HIERARCHY
ROOT Hips
{
	OFFSET -3.958830 18.904000 13.208200
	CHANNELS 6 Xposition Yposition Zposition Zrotation Yrotation Xrotation 
	JOINT LHipJoint
	{
		OFFSET 0.000000 0.000000 0.000000
		CHANNELS 3 Zrotation Yrotation Xrotation
		JOINT LeftUpLeg
		{
			OFFSET 1.800000 -1.400000 0.085000
			CHANNELS 3 Zrotation Yrotation Xrotation
			JOINT LeftLeg
			{
				OFFSET 2.215000 -6.000000 0.000000
				CHANNELS 3 Zrotation Yrotation Xrotation
				JOINT LeftFoot
				{
					OFFSET 2.500000 -6.900000 0.000000
					CHANNELS 3 Zrotation Yrotation Xrotation
					JOINT LeftToeBase
					{
						OFFSET 0.200000 -0.500000 1.950000
						CHANNELS 3 Zrotation Yrotation Xrotation
						End Site
						{
							OFFSET 0.000000 0.000000 0.000000
						}
					}
				}
			}
		}
	}
	JOINT RHipJoint
	{
		OFFSET 0.000000 0.000000 0.000000
		CHANNELS 3 Zrotation Yrotation Xrotation
		JOINT RightUpLeg
		{
			OFFSET -1.800000 -1.400000 0.085000
			CHANNELS 3 Zrotation Yrotation Xrotation
			JOINT RightLeg
			{
				OFFSET -2.215000 -6.000000 0.000000
				CHANNELS 3 Zrotation Yrotation Xrotation
				JOINT RightFoot
				{
					OFFSET -2.500000 -6.900000 0.000000
					CHANNELS 3 Zrotation Yrotation Xrotation
					JOINT RightToeBase
					{
						OFFSET -0.200000 -0.500000 1.950000
						CHANNELS 3 Zrotation Yrotation Xrotation
						End Site
						{
							OFFSET 0.000000 0.000000 0.000000
						}
					}
				}
			}
		}
	}
	JOINT LowerBack
	{
		OFFSET 0.000000 0.000000 0.000000
		CHANNELS 3 Zrotation Yrotation Xrotation
		JOINT Spine
		{
			OFFSET -0.087000 1.940000 -0.288900
			CHANNELS 3 Zrotation Yrotation Xrotation
			JOINT Spine1
			{
				OFFSET 0.000000 1.950000 0.060000
				CHANNELS 3 Zrotation Yrotation Xrotation
				JOINT Neck
				{
					OFFSET 0.000000 0.000000 0.000000
					CHANNELS 3 Zrotation Yrotation Xrotation
					JOINT Neck1
					{
						OFFSET 0.000000 1.600000 0.340000
						CHANNELS 3 Zrotation Yrotation Xrotation
						JOINT Head
						{
							OFFSET 0.000000 1.667000 -0.240000
							CHANNELS 3 Zrotation Yrotation Xrotation
							End Site
							{
								OFFSET 0.000000 0.000000 0.000000
							}
						}
					}
				}
				JOINT LeftShoulder
				{
					OFFSET 0.000000 0.000000 0.000000
					CHANNELS 3 Zrotation Yrotation Xrotation
					JOINT LeftArm
					{
						OFFSET 2.700000 1.550000 -0.730000
						CHANNELS 3 Zrotation Yrotation Xrotation
						JOINT LeftForeArm
						{
							OFFSET 5.450000 0.000000 0.000000
							CHANNELS 3 Zrotation Yrotation Xrotation
							JOINT LeftHand
							{
								OFFSET 3.450000 0.000000 0.000000
								CHANNELS 3 Zrotation Yrotation Xrotation
								JOINT LeftHandIndex1
								{
									OFFSET 0.750000 0.000000 0.000000
									CHANNELS 3 Zrotation Yrotation Xrotation
									End Site
									{
										OFFSET 0.000000 0.000000 0.000000
									}
								}
							}
						}
					}
				}
				JOINT RightShoulder
				{
					OFFSET 0.000000 0.000000 0.000000
					CHANNELS 3 Zrotation Yrotation Xrotation
					JOINT RightArm
					{
						OFFSET -2.700000 1.550000 -0.730000
						CHANNELS 3 Zrotation Yrotation Xrotation
						JOINT RightForeArm
						{
							OFFSET -5.450000 0.000000 0.000000
							CHANNELS 3 Zrotation Yrotation Xrotation
							JOINT RightHand
							{
								OFFSET -3.450000 0.000000 0.000000
								CHANNELS 3 Zrotation Yrotation Xrotation
								JOINT RightHandIndex1
								{
									OFFSET -0.750000 0.000000 0.000000
									CHANNELS 3 Zrotation Yrotation Xrotation
									End Site
									{
										OFFSET 0.000000 0.000000 0.000000
									}
								}
							}
						}
					}
				}
			}
		}
	}
}
MOTION
Frames: 4
Frame Time: 0.016667
-0.502510 16.974280 -2.508990 14.113282 14.432527 -20.071634 -16.285077 11.498167 7.541392 -10.347397 -16.209282 -74.522846 19.530733 1.295805 49.055291 0.838630 7.129802 1.830460 0.533710 0.194480 0.527890 17.580386 -8.962577 1.248902 -18.390899 4.034054 7.372135 10.477459 -9.255946 25.273214 -0.905612 -5.736278 2.347789 -0.243480 -0.485590 0.214120 -1.071881 -4.678173 -9.343564 -10.637542 15.057580 51.313212 7.827297 15.270291 -5.556972 5.399042 -4.096244 -17.056288 -10.717025 -2.517098 62.174306 5.621080 -12.780060 -15.623440 -32.478237 -13.622556 5.688276 -63.345212 14.898389 -18.899265 -16.583917 -17.401905 -1.314067 -2.863918 3.139830 0.598740 -0.566870 0.482660 0.123610 23.598751 29.695278 13.205084 20.089448 1.047878 -18.804789 -138.078710 26.604155 -91.010233 2.510332 -1.909755 0.337700 -0.213930 -0.340860 -0.044370 
-0.494130 16.993620 -2.506840 14.249216 13.631803 -20.356483 -16.282011 11.524720 7.506479 -9.401525 -15.592605 -74.966788 19.461220 1.480837 50.275216 0.883120 7.394331 1.744039 0.539880 0.202790 0.534020 17.581608 -9.004574 1.221806 -18.354071 3.918661 7.606225 9.620086 -8.948041 24.972650 -0.891142 -5.654505 2.381161 -0.239500 -0.483440 0.214850 -1.094205 -4.623723 -9.323466 -10.748224 15.177245 51.268485 7.644117 15.371731 -5.106644 5.396988 -4.064020 -17.015320 -10.692937 -2.422568 61.989108 5.498900 -12.608550 -15.220850 -32.098238 -13.560076 5.713162 -63.262779 14.814948 -19.007485 -17.052694 -17.666446 -1.283042 -2.866188 3.146213 0.589460 -0.561570 0.482250 0.127220 23.195098 29.624020 13.234671 19.835141 1.076614 -18.632180 -138.125548 26.819903 -91.424206 2.509527 -1.909887 0.342250 -0.213220 -0.346580 -0.042360 
-0.476670 17.050310 -2.515030 14.446318 12.416665 -21.184284 -16.273105 11.560353 7.478401 -7.810522 -14.655537 -75.625049 18.386119 2.149386 52.035926 0.935382 7.734096 1.638041 0.549730 0.223130 0.537700 17.587192 -9.059402 1.183842 -18.351829 3.740431 8.255873 8.183541 -8.457970 24.427931 -0.879050 -5.538504 2.434299 -0.229490 -0.477390 0.208870 -1.140062 -4.588203 -9.301440 -10.744874 15.247733 51.966602 7.180045 15.447429 -4.365131 5.440857 -4.150337 -16.926223 -11.119002 -2.098445 61.621220 5.769650 -12.467620 -15.274080 -31.451939 -13.548700 5.708556 -62.913120 14.464852 -19.136450 -18.210728 -18.115091 -1.195990 -2.859556 3.152546 0.580720 -0.558450 0.485360 0.138600 22.431212 29.641948 13.303002 19.225957 0.997573 -18.415279 -138.476281 27.142673 -92.686739 2.504734 -1.909628 0.344690 -0.201570 -0.359900 -0.034660 
-0.464910 17.149740 -2.542750 14.643467 11.414160 -22.164856 -16.259402 11.587704 7.493881 -5.587044 -13.535057 -76.229905 15.354261 3.712314 53.169515 0.929871 7.970104 1.564478 0.551020 0.228680 0.540220 17.598213 -9.125903 1.134318 -18.127416 3.508500 8.736678 6.312818 -7.864553 24.161444 -0.863049 -5.398397 2.498558 -0.221190 -0.462620 0.200590 -1.198206 -4.584880 -9.273575 -10.996567 15.258535 53.259924 6.824752 15.194022 -3.519224 5.415857 -4.136463 -16.902769 -11.441389 -1.782905 61.047114 6.238090 -12.256090 -15.776080 -30.757474 -14.107958 5.924409 -62.250457 14.046714 -19.352434 -20.160411 -18.942967 -1.053899 -2.856399 3.152351 0.585600 -0.551700 0.483190 0.143240 21.758163 29.923126 13.365167 18.394547 0.913211 -18.295279 -139.251960 27.970952 -95.979570 2.483635 -1.897559 0.331800 -0.176810 -0.360510 -0.036160 
